<svg xmlns="http://www.w3.org/2000/svg" version="1.1" xmlns:xlink="http://www.w3.org/1999/xlink" xmlns:svgjs="http://svgjs.dev/svgjs" width="1500" height="1500" viewBox="0 0 1500 1500"><rect width="1500" height="1500" fill="#ffffff"></rect><g transform="matrix(0.6666666666666666,0,0,0.6666666666666666,249.39393939393938,603.4954960449168)"><svg viewBox="0 0 396 116" data-background-color="#ffffff" preserveAspectRatio="xMidYMid meet" height="439" width="1500" xmlns="http://www.w3.org/2000/svg" xmlns:xlink="http://www.w3.org/1999/xlink"><g id="tight-bounds" transform="matrix(1,0,0,1,0.2400000000000091,0.06784439221982552)"><svg viewBox="0 0 395.52 115.86431121556038" height="115.86431121556038" width="395.52"><g><svg viewBox="0 0 687.4961982280056 201.39632248939176" height="115.86431121556038" width="395.52"><g><svg viewBox="0 0 395.52 201.39632248939176" height="201.39632248939176" width="395.52"><g id="textblocktransform"><svg viewBox="0 0 395.52 201.39632248939176" height="201.39632248939176" width="395.52" id="textblock"><g><svg viewBox="0 0 395.52 201.39632248939176" height="201.39632248939176" width="395.52"><g transform="matrix(1,0,0,1,0,0)"><svg width="395.52" viewBox="1.61 -34.35 69.04 35.160000000000004" height="201.39632248939176" data-palette-color="#000000"><g class="wordmark-text-0" data-fill-palette-color="primary" id="text-0"><path d="M35.55-2.15L35.55 0 22.9 0 22.9-2.15 25.76-2.34Q26.27-2.39 26.54-2.73 26.81-3.08 26.81-3.44L26.81-3.44 26.81-16.36 10.35-16.36 10.35-3.44Q10.35-3.08 10.61-2.73 10.86-2.39 11.4-2.34L11.4-2.34 14.26-2.15 14.26 0 1.61 0 1.61-2.15 4.2-2.34Q4.74-2.39 5.02-2.73 5.3-3.08 5.3-3.44L5.3-3.44 5.3-30.1Q5.3-30.47 5.02-30.8 4.74-31.13 4.2-31.15L4.2-31.15 1.61-31.35 1.61-33.54 14.26-33.54 14.26-31.35 11.4-31.15Q10.86-31.13 10.61-30.8 10.35-30.47 10.35-30.1L10.35-30.1 10.35-18.85 26.81-18.85 26.81-30.1Q26.81-30.47 26.54-30.8 26.27-31.13 25.76-31.15L25.76-31.15 22.9-31.35 22.9-33.54 35.55-33.54 35.55-31.35 32.96-31.15Q32.42-31.13 32.14-30.8 31.86-30.47 31.86-30.1L31.86-30.1 31.86-3.44Q31.86-3.08 32.14-2.73 32.42-2.39 32.96-2.34L32.96-2.34 35.55-2.15ZM70.65-16.21L70.65-14.04 68.11-13.79Q67.58-13.77 67.32-13.45 67.06-13.13 67.06-12.74L67.06-12.74 67.06-1.2Q67.06-1.2 65.56-0.7 64.06-0.2 61.67 0.31 59.27 0.81 56.56 0.81L56.56 0.81Q52.39 0.81 49.14-0.63 45.9-2.08 43.66-4.55 41.43-7.03 40.27-10.21 39.11-13.38 39.11-16.85L39.11-16.85Q39.11-22.09 41.29-26.04 43.48-29.98 47.54-32.17 51.61-34.35 57.2-34.35L57.2-34.35Q59.76-34.35 61.94-33.89 64.11-33.42 66.18-32.86L66.18-32.86 67.01-32.64 67.01-24.56 64.01-24.56 63.21-29.05Q63.13-29.49 62.84-29.8 62.55-30.1 62.2-30.25L62.2-30.25Q62.11-30.27 61.91-30.37L61.91-30.37Q61.15-30.71 59.87-31.13 58.59-31.54 57-31.54L57-31.54Q53.42-31.54 50.66-29.87 47.9-28.2 46.35-24.98 44.8-21.75 44.8-17.09L44.8-17.09Q44.8-9.89 48.28-5.94 51.76-2 57.61-2L57.61-2Q59.27-2 60.56-2.38 61.84-2.76 62.01-2.76L62.01-2.76 62.01-12.74Q62.01-13.13 61.75-13.45 61.5-13.77 60.96-13.79L60.96-13.79 57.61-14.04 57.61-16.21 70.65-16.21Z" fill="#000000" data-fill-palette-color="primary"></path></g></svg></g></svg></g></svg></g></svg></g><g transform="matrix(1,0,0,1,443.0648382280056,12.78104884569737)"><svg viewBox="0 0 244.43135999999998 175.83422479799702" height="175.83422479799702" width="244.43135999999998"><g><svg xmlns="http://www.w3.org/2000/svg" xmlns:xlink="http://www.w3.org/1999/xlink" version="1.1" x="0" y="0" viewBox="9.666427092500705 20.99984173299769 80.6671458149986 58.02874496565117" enable-background="new 0 0 100 100" xml:space="preserve" height="175.83422479799702" width="244.43135999999998" class="icon-icon-0" data-fill-palette-color="accent" id="icon-0"><path d="M32.951 28.716A2 2 0 0 0 30.123 28.716L10.252 48.586A2 2 0 0 0 10.252 51.414L30.123 71.284C30.514 71.675 31.025 71.87 31.537 71.87S32.56 71.675 32.951 71.284A2 2 0 0 0 32.951 68.456L14.494 50 32.951 31.544A2 2 0 0 0 32.951 28.716M89.748 48.586L69.877 28.716A2 2 0 1 0 67.049 31.544L85.506 50 67.049 68.456A2 2 0 1 0 69.877 71.284L89.748 51.414A2 2 0 0 0 89.748 48.586M63.208 21.182A2 2 0 0 0 60.557 22.167L35.807 76.167A2 2 0 1 0 39.443 77.833L64.193 23.833A2 2 0 0 0 63.208 21.182" fill="#000000" data-fill-palette-color="accent"></path></svg></g></svg></g></svg></g><defs></defs></svg><rect width="395.52" height="115.86431121556038" fill="none" stroke="none" visibility="hidden"></rect></g></svg></g></svg>